<?xml version="1.0" standalone="no"?><!DOCTYPE svg PUBLIC "-//W3C//DTD SVG 1.1//EN" "http://www.w3.org/Graphics/SVG/1.1/DTD/svg11.dtd"><svg t="1739004683238" class="icon" viewBox="0 0 1074 1024" version="1.1" xmlns="http://www.w3.org/2000/svg" p-id="4193" xmlns:xlink="http://www.w3.org/1999/xlink" width="209.765625" height="200"><path d="M997.646 891.985L832.047 726.142c126.764-177.566 109.911-426.208-48.97-586.922-177.445-175.857-466.51-175.857-643.955 1.71-177.444 177.566-177.444 466.875 0 644.442 85.486 85.852 201.625 133.969 322.771 133.602a453.681 453.681 0 0 0 263.663-84.509l165.599 165.721c15.265 15.265 33.828 21.982 54.1 21.982 20.273 0 38.957-6.717 54.1-21.982 29.066-30.409 28.333-78.647-1.709-108.2z m-794.287-170.85c-141.907-142.029-141.907-373.818 0-515.847 71.076-71.075 164.011-106.49 256.946-106.49s185.871 35.537 256.825 106.49c141.907 142.03 141.907 373.818 0 515.847-68.023 68.267-160.47 106.614-256.825 106.614s-188.924-38.47-256.946-106.614z m0 0" fill="#1296DB" p-id="4194"></path><path d="M335.618 337.914c-3.664-2.32-6.96-3.664-10.625-3.664h71.076c5.129 0 8.793 1.344 10.625 3.664 0.854 1.832 1.343 5.495 1.343 10.625l-63.626 266.96v8.304c0 0.489 0.855 1.832 2.32 3.664 0.489 0.855 1.344 2.32 3.664 3.664 1.832 1.343 3.664 1.832 5.13 1.832h-69.733c-4.152 0-7.327-1.344-9.648-3.664l-3.175-3.175c-0.488-0.489-0.488-1.344-0.488-2.32 0-0.489 0.488-2.81 0.854-6.84L337.45 349.15c0.488-2.32 0.855-4.152 0.855-5.129-0.855-3.42-1.344-5.13-2.687-6.106z m127.252 3.664c-0.855-1.832-2.32-3.664-5.13-5.496-2.32-1.343-5.128-2.32-7.326-2.32H604.41c18.441 0 34.073 4.152 47.995 12.456 9.647 7.816 14.288 23.57 14.288 46.163 0 11.48-1.343 23.57-3.664 36.392-2.808 12.945-6.472 25.768-11.113 37.736-4.64 11.968-10.624 22.593-17.097 31.264-6.472 9.281-13.311 15.631-20.76 19.295-4.642 2.809-9.282 5.13-14.29 7.327-5.128 1.832-10.624 3.664-16.608 4.641-5.984 0.855-13.311 1.832-21.25 1.832H490.47l12.945-49.704h43.72c11.113-1.343 19.784-5.13 26.745-11.48 4.152-3.663 7.816-9.28 11.113-17.097 2.809-7.816 5.13-16.608 6.839-25.768 1.343-9.281 2.32-17.952 2.32-24.913 0-8.793-0.855-13.8-2.809-16.12-4.64-4.152-10.624-6.472-18.44-6.472h-42.865L470.564 614.4c0 4.64 1.343 9.281 3.663 13.311 1.344 1.832 5.496 3.664 12.457 4.641h-71.075c-5.984-1.343-9.648-2.809-11.48-4.64-2.32-3.664-3.664-6.473-3.664-8.793 0-0.855 0.489-2.32 0.855-5.13l64.115-259.51c0.855-2.321 0.855-4.153 0.855-5.13 0-1.343 0-2.32-0.489-2.809-0.488-0.488-0.855-1.343-1.832-2.808a10.102 10.102 0 0 0-1.099-1.954z m0 0" fill="#1296DB" p-id="4195"></path></svg>